<?xml version="1.0" encoding="UTF-8"?>
<svg id="Shape" xmlns="http://www.w3.org/2000/svg" viewBox="0 0 1920 1920">
  <defs>
    <style>
      .cls-1 {
        fill: #fff;
      }
    </style>
  </defs>
  <circle id="Cirle_x5F_01_x5F_L" class="cls-1" cx="366.4" cy="958.42" r="156.4"/>
  <circle id="Cirle_x5F_02_x5F_R" class="cls-1" cx="1564.27" cy="966.71" r="145.73"/>
  <path id="Line_x5F_01_x5F_L_x5F_T" class="cls-1" d="M644.59,541.75c174.18-.05,298.53,104.32,296.82,154.37-1.27,37.28-30.14,69.9-67.44,69.71-47.21-.24-79.1-89.45-229.31-89.05-56.12.15-123.01,39.23-164.47,76.5-8.24,6.77-9.03,12.3-38.76,12.35-45.79-.05-81.28-.05-113.12.07-17.89-.12-18.73-21.11-18.73-22.5,0-37.3,154.49-201.41,335.01-201.46Z"/>
  <path id="Line_x5F_02_x5F_R_x5F_B" class="cls-1" d="M1297.36,1369.11c-174.18.05-273.25-83.78-271.54-133.83,1.27-37.28,30.14-69.9,67.44-69.71,47.21.24,53.83,68.91,204.03,68.51,56.12-.15,123.01-39.23,164.47-76.5,8.24-6.77,9.03-12.3,38.76-12.35,45.79.05,70.18.05,102.02-.07,17.89.12,18.73,21.11,18.73,22.5,0,37.3-143.39,201.41-323.92,201.46Z"/>
  <path id="Line_x5F_03_x5F_R_x5F_T" class="cls-1" d="M1285.9,555.87c-85.97,0-197.31,30.28-273.21,120.92-121.05,145.98-229.02,284.3-274.35,341.88-61.86,80.39,53.99,147.79,103.39,89.54,40.56-49.17,142.46-179.51,258.66-327.96,74.6-87.02,139.39-88.86,185.49-89.84,90.18-1.92,140.79,48.12,182.25,85.39,8.24,6.78,9.03,12.3,38.76,12.35,45.79-.05,65.83-.05,97.67.07,17.89-.12,18.73-21.11,18.73-22.5,0-37.3-116.23-209.86-337.39-209.85Z"/>
  <path id="Line_x5F_04_x5F_L_x5F_B" class="cls-1" d="M651.9,1378.97c97.42,1.46,198.23-15.97,304.17-122.43,121.05-145.98,229.02-284.3,274.35-341.88,61.86-80.39-53.99-147.79-103.39-89.54-40.56,49.17-142.46,179.51-258.66,327.96-70.54,80.31-170.34,90.86-216.45,90.09-86.89-1.45-140.79-46.85-182.25-84.12-8.24-6.78-9.03-11.7-38.76-11.74-45.79.05-65.83.05-97.67-.07-17.89.12-18.73,20.51-18.73,21.89,0,37.3,116.26,206.54,337.39,209.85Z"/>
</svg>
